<svg width="1106" height="197" viewBox="0 0 1106 197" fill="none" xmlns="http://www.w3.org/2000/svg">
<path d="M31.4826 89.056H101.579V115.264H31.4826V89.056ZM33.9786 148.96H113.227V176H0.490563V30.4H110.523V57.44H33.9786V148.96ZM110.909 196.8L179.549 0.863986H208.461L139.821 196.8H110.909ZM184.026 176L248.922 30.4H282.202L347.306 176H311.946L258.698 47.456H272.01L218.554 176H184.026ZM216.474 144.8L225.418 119.216H300.298L309.45 144.8H216.474ZM357.412 176V30.4H420.436C433.471 30.4 444.703 32.5493 454.132 36.848C463.562 41.008 470.842 47.04 475.972 54.944C481.103 62.848 483.668 72.2773 483.668 83.232C483.668 94.048 481.103 103.408 475.972 111.312C470.842 119.077 463.562 125.04 454.132 129.2C444.703 133.36 433.471 135.44 420.436 135.44H376.132L391.108 120.672V176H357.412ZM449.972 176L413.572 123.168H449.556L486.372 176H449.972ZM391.108 124.416L376.132 108.608H418.564C428.964 108.608 436.73 106.389 441.86 101.952C446.991 97.376 449.556 91.136 449.556 83.232C449.556 75.1893 446.991 68.9493 441.86 64.512C436.73 60.0747 428.964 57.856 418.564 57.856H376.132L391.108 41.84V124.416ZM533.494 176V57.856H486.902V30.4H613.782V57.856H567.19V176H533.494ZM626.912 176V30.4H660.608V176H626.912ZM738.002 178.496C726.354 178.496 715.192 176.971 704.514 173.92C693.837 170.731 685.24 166.64 678.722 161.648L690.162 136.272C696.402 140.709 703.752 144.384 712.21 147.296C720.808 150.069 729.474 151.456 738.21 151.456C744.866 151.456 750.205 150.832 754.226 149.584C758.386 148.197 761.437 146.325 763.378 143.968C765.32 141.611 766.29 138.907 766.29 135.856C766.29 131.973 764.765 128.923 761.714 126.704C758.664 124.347 754.642 122.475 749.65 121.088C744.658 119.563 739.112 118.176 733.01 116.928C727.048 115.541 721.016 113.877 714.914 111.936C708.952 109.995 703.474 107.499 698.482 104.448C693.49 101.397 689.4 97.376 686.21 92.384C683.16 87.392 681.634 81.0133 681.634 73.248C681.634 64.928 683.853 57.3707 688.29 50.576C692.866 43.6427 699.661 38.1653 708.674 34.144C717.826 29.984 729.266 27.904 742.994 27.904C752.146 27.904 761.16 29.0133 770.034 31.232C778.909 33.312 786.744 36.5013 793.538 40.8L783.138 66.384C776.344 62.5013 769.549 59.6587 762.754 57.856C755.96 55.9147 749.304 54.944 742.786 54.944C736.269 54.944 730.93 55.7067 726.77 57.232C722.61 58.7573 719.629 60.768 717.826 63.264C716.024 65.6213 715.122 68.3947 715.122 71.584C715.122 75.328 716.648 78.3787 719.698 80.736C722.749 82.9547 726.77 84.7573 731.762 86.144C736.754 87.5307 742.232 88.9173 748.194 90.304C754.296 91.6907 760.328 93.2853 766.29 95.088C772.392 96.8907 777.938 99.3173 782.93 102.368C787.922 105.419 791.944 109.44 794.994 114.432C798.184 119.424 799.778 125.733 799.778 133.36C799.778 141.541 797.49 149.029 792.914 155.824C788.338 162.619 781.474 168.096 772.322 172.256C763.309 176.416 751.869 178.496 738.002 178.496ZM798.667 176L863.563 30.4H896.843L961.947 176H926.587L873.339 47.456H886.651L833.195 176H798.667ZM831.115 144.8L840.059 119.216H914.939L924.091 144.8H831.115ZM972.053 176V30.4H999.925L1085.83 135.232H1072.31V30.4H1105.59V176H1077.93L991.813 71.168H1005.33V176H972.053Z" fill="white"/>
</svg>
