<svg id="visual" viewBox="0 0 900 600" width="900" height="600" xmlns="http://www.w3.org/2000/svg" xmlns:xlink="http://www.w3.org/1999/xlink" version="1.1"><rect x="0" y="0" width="900" height="600" fill="#fff"></rect><path d="M0 442L21.5 455C43 468 86 494 128.8 492.7C171.7 491.3 214.3 462.7 257.2 447.3C300 432 343 430 385.8 440.2C428.7 450.3 471.3 472.7 514.2 466.5C557 460.3 600 425.7 642.8 426.5C685.7 427.3 728.3 463.7 771.2 478.2C814 492.7 857 485.3 878.5 481.7L900 478L900 601L878.5 601C857 601 814 601 771.2 601C728.3 601 685.7 601 642.8 601C600 601 557 601 514.2 601C471.3 601 428.7 601 385.8 601C343 601 300 601 257.2 601C214.3 601 171.7 601 128.8 601C86 601 43 601 21.5 601L0 601Z" fill="#FF564F" stroke-linecap="round" stroke-linejoin="miter"></path></svg>